PathFileType	4	(X/Y/Z)	s05c0403.trc
DataRate	CameraRate	NumFrames	NumMarkers	Units	OrigDataRate	OrigDataStartFrame	OrigNumFrames
200	200	6	49	mm	200	0	2000
Frame#	Time	racr			lacr			c7			jug			rlel			rdr			llel			ldr			s2			lic			ric			lasi			rasi			rpsi			lpsi			rgt			lgt			rth1			rth2			rth3			rth4			rlfc			rsh1			rsh2			rsh3			rsh4			rlmal			rmmal			rcal			rtoe			rmt5			lth1			lth2			lth4			lth3			llfc			lmfc			lsh1			lsh2			lsh3			lsh4			llmal			lmmal			lcal			ltoe			lmt5			SBIKE			LBIKE			RBIKE			
		X1	Y1	Z1	X2	Y2	Z2	X3	Y3	Z3	X4	Y4	Z4	X5	Y5	Z5	X6	Y6	Z6	X7	Y7	Z7	X8	Y8	Z8	X9	Y9	Z9	X10	Y10	Z10	X11	Y11	Z11	X12	Y12	Z12	X13	Y13	Z13	X14	Y14	Z14	X15	Y15	Z15	X16	Y16	Z16	X17	Y17	Z17	X18	Y18	Z18	X19	Y19	Z19	X20	Y20	Z20	X21	Y21	Z21	X22	Y22	Z22	X23	Y23	Z23	X24	Y24	Z24	X25	Y25	Z25	X26	Y26	Z26	X27	Y27	Z27	X28	Y28	Z28	X29	Y29	Z29	X30	Y30	Z30	X31	Y31	Z31	X32	Y32	Z32	X33	Y33	Z33	X34	Y34	Z34	X35	Y35	Z35	X36	Y36	Z36	X37	Y37	Z37	X38	Y38	Z38	X39	Y39	Z39	X40	Y40	Z40	X41	Y41	Z41	X42	Y42	Z42	X43	Y43	Z43	X44	Y44	Z44	X45	Y45	Z45	X46	Y46	Z46	X47	Y47	Z47	X48	Y48	Z48	X49	Y49	Z49	
0	0.0000	398.187903	1393.343583	-146.796063	401.441261	1400.020051	-441.340173	388.858604	1470.286160	-298.292219	369.317143	1316.115902	-293.395108	496.504909	1155.734801	-47.781976	681.926198	963.780457	-80.416516	466.183077	1145.898179	-545.000471	753.134553	1023.778891	-480.552251	-111.599796	1151.120568	-279.713046	32.922663	1166.957736	-423.560112	36.515849	1191.334614	-143.982829	85.189782	1119.966601	-388.033333	80.958005	1132.640593	-169.542728	-82.009636	1197.342258	-240.788613	-79.312432	1198.087160	-327.662469	1.643661	1068.834151	-103.672569	-35.005316	1057.534455	-446.527399	104.945680	1024.321662	-85.803107	193.997391	1020.052743	-82.687714	267.569656	971.463165	-80.940599	204.682359	1053.464687	-94.835245	408.510061	906.658654	-103.635248	335.845005	821.495193	-85.529420	313.602057	736.934878	-99.400349	254.164394	674.529501	-106.580119	339.767679	725.489799	-125.103295	193.537936	558.469832	-121.116102	210.784202	590.014046	-197.596364	117.800144	533.339296	-168.121384	408.234190	480.099570	-160.178017	305.311097	468.574995	-95.565148	37.261100	934.411998	-468.784334	100.843266	877.541956	-471.883862	133.018622	893.943793	-460.043453	126.764223	790.351008	-474.153204	190.049169	655.438054	-447.221808	184.472920	645.687402	-338.829787	109.293469	553.409082	-467.354851	89.192427	468.943933	-453.107062	27.523751	405.636262	-448.418937	117.034091	455.909105	-431.159491	-21.437245	288.891008	-435.932266	10.336654	318.612744	-361.042210	-88.919786	259.589830	-389.495999	197.365472	194.252973	-402.772708	85.396465	184.555171	-462.633110	-170.531295	899.191484	-273.600160	-53.519411	79.121111	-474.672463	-53.184640	78.830501	-76.971324	
1	0.0050	398.211329	1393.294767	-146.775600	401.391565	1399.972768	-441.382537	388.800511	1470.292947	-298.276628	369.339977	1316.112291	-293.400787	496.501543	1155.688294	-47.781822	681.930856	963.768537	-80.330203	466.157725	1145.875409	-545.034887	752.890546	1023.835019	-480.456703	-111.586970	1151.119731	-279.653195	32.895663	1166.950019	-423.552495	36.502130	1191.329250	-143.943219	85.180726	1119.945065	-388.017917	80.956267	1132.631414	-169.495856	-82.006871	1197.323389	-240.755191	-79.316358	1198.113601	-327.646814	1.621224	1068.832868	-103.648307	-35.018616	1057.541547	-446.497174	104.922562	1024.288150	-85.779037	193.968700	1020.052712	-82.641443	267.573448	971.453809	-80.922508	204.663578	1053.470831	-94.763797	408.514644	906.687926	-103.617760	335.825931	821.500651	-85.517630	313.579930	736.946488	-99.379850	254.186417	674.521821	-106.579213	339.787549	725.498663	-125.068102	193.521760	558.461274	-121.097595	210.791627	590.010755	-197.595958	117.792418	533.361372	-168.127742	408.215470	480.111885	-160.181614	305.312240	468.582479	-95.564586	37.249006	934.424025	-468.793849	100.824717	877.572774	-471.879406	133.013984	893.956969	-460.039157	126.749228	790.389458	-474.153404	190.040002	655.436111	-447.211245	184.503811	645.713989	-338.836593	109.301598	553.415358	-467.345971	89.195485	468.978920	-453.142517	27.524120	405.659965	-448.417287	117.049096	455.950843	-431.155411	-21.421381	288.912149	-435.937805	10.318164	318.645812	-361.062723	-88.901823	259.612679	-389.496627	197.357635	194.238291	-402.783931	85.389523	184.573402	-462.632126	-173.986732	897.649289	-278.759674	-53.527007	79.131804	-474.692831	-53.154948	78.820596	-76.996459	
2	0.0100	398.240937	1393.261607	-146.772121	401.342687	1399.932316	-441.425248	388.774854	1470.285380	-298.286288	369.331678	1316.124698	-293.414019	496.499234	1155.664349	-47.773648	681.958731	963.769823	-80.237231	466.122092	1145.851873	-545.072011	752.696045	1023.907650	-480.320233	-111.600035	1151.122924	-279.622437	32.874334	1166.960876	-423.514121	36.513544	1191.321593	-143.930845	85.167983	1119.969928	-387.972326	80.958752	1132.611048	-169.474772	-82.020447	1197.325120	-240.714483	-79.335997	1198.119030	-327.612987	1.622763	1068.806686	-103.623773	-35.056268	1057.560549	-446.471232	104.924623	1024.271652	-85.751232	193.968697	1020.042396	-82.602522	267.560652	971.445649	-80.877167	204.654252	1053.465447	-94.716044	408.467745	906.659755	-103.566797	335.820777	821.498056	-85.476256	313.569086	736.943536	-99.352312	254.165771	674.523676	-106.557821	339.765632	725.508158	-125.050679	193.518163	558.452777	-121.098703	210.784757	590.018041	-197.584383	117.797355	533.365836	-168.127061	408.222038	480.113292	-160.174029	305.315892	468.582998	-95.562181	37.229988	934.429693	-468.779910	100.797999	877.583878	-471.879753	132.997803	893.956510	-460.017324	126.721358	790.400242	-474.150030	190.038297	655.452324	-447.217884	184.501797	645.727739	-338.835258	109.287322	553.434902	-467.354650	89.203770	468.994058	-453.115588	27.533095	405.666450	-448.415998	117.045217	455.973026	-431.165407	-21.421191	288.925551	-435.927629	10.292501	318.669365	-361.038858	-88.896424	259.636738	-389.498170	197.370784	194.236755	-402.783482	85.405479	184.572837	-462.619995	-170.408487	899.107246	-273.118268	-53.518663	79.144870	-474.694969	-53.163955	78.831555	-76.988869	
3	0.0150	398.266317	1393.233538	-146.781294	401.299658	1399.913612	-441.476168	388.746157	1470.287777	-298.348332	369.339341	1316.140089	-293.422949	496.509553	1155.635530	-47.745215	681.981500	963.766609	-80.113703	466.090682	1145.808212	-545.098102	753.839089	1026.234442	-480.260985	-111.617692	1151.143690	-279.562804	32.872040	1166.963021	-423.498745	36.481635	1191.435934	-144.938196	85.163965	1119.964037	-387.926135	80.962196	1132.599917	-169.466813	-82.038616	1197.339209	-240.671362	-79.304972	1198.320174	-327.634649	1.570367	1068.716202	-103.567657	-35.073242	1057.576013	-446.445125	104.879421	1024.266471	-85.716580	193.945396	1020.041720	-82.559010	267.324675	971.707225	-80.518033	204.626501	1053.443476	-94.686696	408.462081	906.658232	-103.547055	335.809772	821.482541	-85.443063	312.872811	736.418705	-99.897568	254.157778	674.512994	-106.538396	339.731923	725.488697	-125.030465	192.967012	559.196964	-120.495292	210.913003	589.910649	-197.557633	117.788948	533.357386	-168.119515	408.216733	480.121346	-160.162054	305.312056	468.591077	-95.560333	37.203094	934.452412	-468.759275	100.861939	877.239062	-471.560264	132.311418	894.858869	-460.976533	126.981263	790.472003	-473.663812	190.018881	655.481065	-447.218451	184.494708	645.755258	-338.821260	109.271253	553.465094	-467.346543	89.040885	469.426901	-453.134139	27.526519	405.683576	-448.405850	117.974022	457.403287	-430.888001	-21.497571	289.441122	-436.668157	10.366220	318.664369	-361.064992	-88.950552	259.641903	-389.495187	197.369086	194.223532	-402.773208	85.411536	184.573096	-462.632182	-173.368275	897.341154	-271.649076	-53.519341	79.105580	-474.667416	-53.180689	78.828341	-76.993984	
4	0.0200	398.276440	1393.522032	-146.563448	401.161459	1400.248757	-441.441961	388.659870	1470.362705	-298.311182	369.352850	1316.537406	-293.356497	496.450489	1155.838881	-47.590679	681.934093	963.853107	-79.937285	466.102939	1146.022002	-545.289505	754.080847	1026.116220	-480.558100	-111.950248	1151.446479	-279.412183	33.091359	1167.067361	-423.588921	36.389422	1191.475465	-144.930029	84.896008	1120.214355	-387.783709	80.938928	1132.577888	-169.422569	-82.035256	1197.471590	-240.637587	-79.418855	1198.385447	-327.647174	1.307313	1069.071360	-103.338927	-35.169752	1057.672932	-446.387005	104.780682	1024.509129	-85.639954	193.837316	1020.271586	-82.412085	267.313809	971.760521	-80.473161	204.725530	1053.516516	-94.780873	408.476411	906.632632	-103.700306	335.672866	821.728454	-85.330793	312.818491	736.734467	-99.739389	254.006942	674.720516	-106.396829	339.646048	725.814207	-124.873722	193.217430	559.004877	-120.715453	210.622926	590.167296	-197.562972	117.745990	533.350585	-168.048403	408.152081	480.244916	-160.100747	305.161927	468.823211	-95.368849	37.091617	934.543098	-468.575027	100.886982	877.270575	-471.529462	132.317172	894.896417	-460.965919	127.014506	790.506169	-473.655192	189.927654	655.642127	-447.292325	184.298664	646.035448	-338.642635	109.239741	553.605774	-467.351894	89.051718	469.429784	-453.115901	27.547336	405.654193	-448.395688	117.925535	457.407422	-430.801480	-21.442689	289.454027	-436.851244	10.317596	318.677809	-361.039668	-88.948795	259.598413	-389.509973	197.390756	194.235624	-402.776343	85.413415	184.545188	-462.646799	-170.322705	898.356016	-276.014848	-53.512090	78.980872	-474.839060	-53.386808	79.199398	-77.012123	
5	0.0250	398.307616	1393.543786	-146.532216	401.118167	1400.242516	-441.482164	388.636008	1470.378553	-298.371358	369.369513	1316.577126	-293.352670	496.471768	1155.861913	-47.515762	681.943883	963.872560	-79.807032	466.055627	1145.994060	-545.327551	753.936071	1026.115001	-480.518965	-111.964395	1151.480786	-279.401970	33.124545	1167.062336	-423.541774	36.389987	1191.480803	-144.883952	84.871632	1120.242294	-387.716669	80.933456	1132.576191	-169.411918	-81.996800	1197.477572	-240.608331	-79.478157	1198.386259	-327.601872	1.262784	1069.143956	-103.293068	-35.198415	1057.704290	-446.378347	104.761472	1024.537498	-85.616595	193.808456	1020.307437	-82.381019	267.294643	971.764309	-80.428998	204.734171	1053.532465	-94.764745	408.468362	906.633003	-103.714582	335.661156	821.767279	-85.320520	312.755194	736.819828	-99.712318	253.969794	674.761882	-106.368834	339.624093	725.874931	-124.820551	193.246852	559.021345	-120.701770	210.590765	590.189848	-197.560602	117.707796	533.399230	-168.014319	408.145887	480.268943	-160.109757	305.162378	468.849041	-95.338633	37.059531	934.572133	-468.552043	100.868369	877.294743	-471.524708	132.295272	894.916024	-460.964733	126.999974	790.519004	-473.648915	189.909473	655.658207	-447.294988	184.279891	646.085578	-338.611766	109.222427	553.616056	-467.339910	89.049845	469.445216	-453.123992	27.552546	405.651338	-448.397012	117.911072	457.406744	-430.782519	-21.405890	289.442075	-436.830918	10.317241	318.677796	-361.040698	-88.930645	259.611493	-389.523152	197.387219	194.239156	-402.776924	85.416573	184.540059	-462.637246	-170.233390	899.056239	-273.521408	-53.494173	78.970837	-474.836864	-53.402324	79.199832	-77.057314	
